<?xml version="1.0" encoding="UTF-8"?>
<!DOCTYPE svg PUBLIC "-//W3C//DTD SVG 1.1//EN" "http://www.w3.org/Graphics/SVG/1.1/DTD/svg11.dtd">
<svg xmlns="http://www.w3.org/2000/svg" version="1.1" width="442px" height="442px" style="shape-rendering:geometricPrecision; text-rendering:geometricPrecision; image-rendering:optimizeQuality; fill-rule:evenodd; clip-rule:evenodd" xmlns:xlink="http://www.w3.org/1999/xlink">
<g><path style="opacity:0.981" fill="#20555b" d="M 381.5,68.5 C 377.798,68.579 374.132,68.2457 370.5,67.5C 369.5,67.8333 368.5,68.1667 367.5,68.5C 369.423,69.3078 371.423,69.8078 373.5,70C 366.706,70.2231 360.039,71.2231 353.5,73C 352.23,73.8996 351.23,75.0663 350.5,76.5C 348.316,75.8919 346.316,76.5586 344.5,78.5C 342.423,79.9876 341.423,81.9876 341.5,84.5C 340.5,84.5 339.5,84.5 338.5,84.5C 338.5,85.5 338.5,86.5 338.5,87.5C 334.38,86.7271 331.88,88.7271 331,93.5C 328.672,94.4862 326.672,96.4862 325,99.5C 324.667,99.1667 324.333,98.8333 324,98.5C 322.729,99.8825 321.229,100.883 319.5,101.5C 327.698,88.1365 338.698,77.6365 352.5,70C 362.167,66.2394 371.833,65.7394 381.5,68.5 Z"/></g>
<g><path style="opacity:1" fill="#1c4750" d="M 381.5,68.5 C 387.588,69.5916 391.921,72.925 394.5,78.5C 390.85,75.5755 388.683,76.5755 388,81.5C 387.333,80.8333 386.667,80.1667 386,79.5C 385.372,85.8923 383.872,86.0589 381.5,80C 380.552,79.5172 379.552,79.3505 378.5,79.5C 378.703,81.6382 379.703,83.3049 381.5,84.5C 379.187,85.2733 376.854,85.9399 374.5,86.5C 373.571,85.3112 373.238,83.9778 373.5,82.5C 372.325,82.281 371.325,82.6143 370.5,83.5C 371.246,84.7362 371.579,86.0695 371.5,87.5C 369.283,86.6314 366.95,86.298 364.5,86.5C 361.829,88.9341 358.996,91.2674 356,93.5C 349.612,103.609 344.279,114.276 340,125.5C 335.341,132.917 328.841,135.417 320.5,133C 317.619,131.749 315.786,129.583 315,126.5C 313.311,117.449 314.811,109.115 319.5,101.5C 321.229,100.883 322.729,99.8825 324,98.5C 324.333,98.8333 324.667,99.1667 325,99.5C 326.672,96.4862 328.672,94.4862 331,93.5C 331.88,88.7271 334.38,86.7271 338.5,87.5C 338.5,86.5 338.5,85.5 338.5,84.5C 339.5,84.5 340.5,84.5 341.5,84.5C 341.423,81.9876 342.423,79.9876 344.5,78.5C 346.316,76.5586 348.316,75.8919 350.5,76.5C 351.23,75.0663 352.23,73.8996 353.5,73C 360.039,71.2231 366.706,70.2231 373.5,70C 371.423,69.8078 369.423,69.3078 367.5,68.5C 368.5,68.1667 369.5,67.8333 370.5,67.5C 374.132,68.2457 377.798,68.579 381.5,68.5 Z"/></g>
<g><path style="opacity:1" fill="#0a2227" d="M 364.5,86.5 C 358.793,86.5074 355.127,89.1741 353.5,94.5C 351.369,90.6733 352.036,87.1733 355.5,84C 357.868,83.2105 360.034,82.0438 362,80.5C 364.403,80.8249 366.236,81.9916 367.5,84C 366.058,84.3768 365.058,85.2101 364.5,86.5 Z"/></g>
<g><path style="opacity:1" fill="#102126" d="M 394.5,78.5 C 395.511,82.1122 395.678,85.7789 395,89.5C 394.29,88.0267 393.124,87.3601 391.5,87.5C 391.714,91.2571 390.714,91.9238 388.5,89.5C 387.863,93.4647 386.863,97.298 385.5,101C 385.167,101.167 384.833,101.333 384.5,101.5C 383.795,99.3279 382.795,97.3279 381.5,95.5C 379.732,97.9389 378.399,100.606 377.5,103.5C 376.833,101.833 376.167,100.167 375.5,98.5C 374.85,100.184 373.85,101.517 372.5,102.5C 372.923,99.353 373.256,96.1864 373.5,93C 373.453,90.7047 372.787,88.8714 371.5,87.5C 371.579,86.0695 371.246,84.7362 370.5,83.5C 371.325,82.6143 372.325,82.281 373.5,82.5C 373.238,83.9778 373.571,85.3112 374.5,86.5C 376.854,85.9399 379.187,85.2733 381.5,84.5C 379.703,83.3049 378.703,81.6382 378.5,79.5C 379.552,79.3505 380.552,79.5172 381.5,80C 383.872,86.0589 385.372,85.8923 386,79.5C 386.667,80.1667 387.333,80.8333 388,81.5C 388.683,76.5755 390.85,75.5755 394.5,78.5 Z"/></g>
<g><path style="opacity:1" fill="#1b3e47" d="M 394.5,78.5 C 395.906,78.9731 396.573,79.9731 396.5,81.5C 396.759,85.2396 396.426,88.9062 395.5,92.5C 393.678,92.4626 391.678,92.796 389.5,93.5C 389.772,97.9017 389.439,102.235 388.5,106.5C 391.08,109.376 391.08,112.21 388.5,115C 384.818,115.157 382.818,113.323 382.5,109.5C 381.5,109.5 380.5,109.5 379.5,109.5C 379.372,106.226 378.039,106.059 375.5,109C 377.271,109.535 377.604,110.369 376.5,111.5C 374.706,112.556 372.706,112.556 370.5,111.5C 369.903,108.275 370.569,105.275 372.5,102.5C 373.85,101.517 374.85,100.184 375.5,98.5C 376.167,100.167 376.833,101.833 377.5,103.5C 378.399,100.606 379.732,97.9389 381.5,95.5C 382.795,97.3279 383.795,99.3279 384.5,101.5C 384.833,101.333 385.167,101.167 385.5,101C 386.863,97.298 387.863,93.4647 388.5,89.5C 390.714,91.9238 391.714,91.2571 391.5,87.5C 393.124,87.3601 394.29,88.0267 395,89.5C 395.678,85.7789 395.511,82.1122 394.5,78.5 Z"/></g>
<g><path style="opacity:0.427" fill="#3f7777" d="M 299.5,108.5 C 297.66,106.832 295.66,105.332 293.5,104C 291.455,103.51 289.455,103.677 287.5,104.5C 287.611,103.883 287.944,103.383 288.5,103C 293.85,101.675 297.517,103.508 299.5,108.5 Z"/></g>
<g><path style="opacity:1" fill="#1d4951" d="M 396.5,81.5 C 399.33,94.2197 398.496,106.886 394,119.5C 389.227,126.044 385.227,133.044 382,140.5C 380.71,144.73 380.21,149.064 380.5,153.5C 379.833,149.833 379.167,146.167 378.5,142.5C 377.596,141.791 377.263,140.791 377.5,139.5C 376.167,139.5 374.833,139.5 373.5,139.5C 373.5,140.5 373.5,141.5 373.5,142.5C 372.5,142.5 371.5,142.5 370.5,142.5C 370.817,139.428 370.484,136.428 369.5,133.5C 368.808,134.025 368.308,134.692 368,135.5C 367.751,134.376 367.251,133.376 366.5,132.5C 365.686,134.766 365.186,137.1 365,139.5C 363.601,136.371 361.935,133.371 360,130.5C 359.921,134.903 358.087,138.237 354.5,140.5C 353.139,138.972 351.972,137.305 351,135.5C 350.51,136.793 350.343,138.127 350.5,139.5C 349.167,139.5 347.833,139.5 346.5,139.5C 346.762,140.978 346.429,142.311 345.5,143.5C 343.606,142.399 342.939,141.066 343.5,139.5C 341.259,140.032 339.759,141.365 339,143.5C 337.661,148.736 337.161,154.07 337.5,159.5C 336.5,159.5 335.5,159.5 334.5,159.5C 334.5,158.833 334.5,158.167 334.5,157.5C 335.114,149.712 337.281,142.378 341,135.5C 351.753,124.084 361.753,112.084 371,99.5C 372.824,95.5738 372.99,91.5738 371.5,87.5C 372.787,88.8714 373.453,90.7047 373.5,93C 373.256,96.1864 372.923,99.353 372.5,102.5C 370.569,105.275 369.903,108.275 370.5,111.5C 372.706,112.556 374.706,112.556 376.5,111.5C 377.604,110.369 377.271,109.535 375.5,109C 378.039,106.059 379.372,106.226 379.5,109.5C 380.5,109.5 381.5,109.5 382.5,109.5C 382.818,113.323 384.818,115.157 388.5,115C 391.08,112.21 391.08,109.376 388.5,106.5C 389.439,102.235 389.772,97.9017 389.5,93.5C 391.678,92.796 393.678,92.4626 395.5,92.5C 396.426,88.9062 396.759,85.2396 396.5,81.5 Z"/></g>
<g><path style="opacity:1" fill="#28575c" d="M 143.5,124.5 C 141.753,122.572 140.087,120.406 138.5,118C 135.559,115.893 132.559,113.893 129.5,112C 131.541,110.259 133.708,110.092 136,111.5C 136.667,110.833 136.667,110.167 136,109.5C 133.541,108.351 131.041,108.351 128.5,109.5C 130.771,106.796 133.438,106.296 136.5,108C 139.517,113.221 141.851,118.721 143.5,124.5 Z"/></g>
<g><path style="opacity:0.949" fill="#2d6266" d="M 287.5,104.5 C 286.034,107.247 285.201,110.247 285,113.5C 281.024,119.297 278.024,125.63 276,132.5C 274.758,134.859 273.258,136.859 271.5,138.5C 275.278,130.011 278.778,121.344 282,112.5C 283.116,109.244 284.949,106.578 287.5,104.5 Z"/></g>
<g><path style="opacity:1" fill="#29444f" d="M 143.5,124.5 C 145.361,130.917 147.528,137.25 150,143.5C 153.381,147.375 156.547,151.375 159.5,155.5C 158.178,155.33 157.011,155.663 156,156.5C 155.964,154.059 155.131,152.059 153.5,150.5C 152.098,150.865 151.098,151.699 150.5,153C 153.1,160.21 155.934,167.376 159,174.5C 159.502,177.513 160.002,180.513 160.5,183.5C 158.67,181.174 157.337,178.507 156.5,175.5C 156.043,174.702 155.376,174.369 154.5,174.5C 151.562,165.289 148.062,156.289 144,147.5C 142.764,139.435 140.597,131.768 137.5,124.5C 136.513,119.146 133.513,117.146 128.5,118.5C 123.939,128.508 118.939,138.174 113.5,147.5C 112.833,148.167 112.167,148.833 111.5,149.5C 115.169,140.696 119.336,132.029 124,123.5C 124.944,118.569 126.444,113.902 128.5,109.5C 131.041,108.351 133.541,108.351 136,109.5C 136.667,110.167 136.667,110.833 136,111.5C 133.708,110.092 131.541,110.259 129.5,112C 132.559,113.893 135.559,115.893 138.5,118C 140.087,120.406 141.753,122.572 143.5,124.5 Z"/></g>
<g><path style="opacity:1" fill="#fdd2ee" d="M 300.5,129.5 C 301.401,130.29 302.068,131.29 302.5,132.5C 302.433,134.401 302.767,136.234 303.5,138C 305.614,142.657 307.947,147.157 310.5,151.5C 310.299,154.728 310.633,157.895 311.5,161C 312.009,162.169 312.842,163.002 314,163.5C 317.526,176.002 321.36,188.336 325.5,200.5C 324.818,202.841 324.151,205.174 323.5,207.5C 303.497,207.667 283.497,207.5 263.5,207C 254.106,207.605 252.94,204.772 260,198.5C 260.197,189.144 262.531,180.478 267,172.5C 267.497,170.19 267.663,167.857 267.5,165.5C 273.292,157.423 277.959,148.59 281.5,139C 282.958,137.248 284.291,135.415 285.5,133.5C 285.277,132.033 284.944,130.533 284.5,129C 287.441,124.696 290.108,120.196 292.5,115.5C 293.672,115.919 294.672,116.585 295.5,117.5C 296.5,120.834 297.5,124.167 298.5,127.5C 299.182,128.243 299.849,128.909 300.5,129.5 Z"/></g>
<g><path style="opacity:1" fill="#fdd2ef" d="M 137.5,124.5 C 138.655,130.832 138.655,137.166 137.5,143.5C 136.573,141.887 135.739,140.221 135,138.5C 132.967,141.097 133.467,143.263 136.5,145C 136.167,145.333 135.833,145.667 135.5,146C 137.282,146.814 138.782,147.981 140,149.5C 140.333,149.167 140.667,148.833 141,148.5C 146.318,158.891 150.318,169.891 153,181.5C 157.79,188.43 160.29,196.097 160.5,204.5C 137.831,204.667 115.164,204.5 92.5,204C 91.9032,202.938 91.5698,201.772 91.5,200.5C 92.8251,194.882 93.8251,189.215 94.5,183.5C 96.0931,182.652 97.2597,181.319 98,179.5C 99.7924,174.582 102.126,169.915 105,165.5C 106.205,164.929 107.372,164.262 108.5,163.5C 110.022,158.073 111.689,152.74 113.5,147.5C 116.13,145.372 118.63,143.039 121,140.5C 122.812,134.703 125.479,129.369 129,124.5C 130.049,125.517 131.216,125.684 132.5,125C 131.833,124.667 131.167,124.333 130.5,124C 132.333,123.5 133.5,122.333 134,120.5C 134.057,122.91 135.224,124.244 137.5,124.5 Z"/></g>
<g><path style="opacity:1" fill="#e5cde5" d="M 300.5,129.5 C 299.849,128.909 299.182,128.243 298.5,127.5C 297.5,124.167 296.5,120.834 295.5,117.5C 294.672,116.585 293.672,115.919 292.5,115.5C 290.108,120.196 287.441,124.696 284.5,129C 284.944,130.533 285.277,132.033 285.5,133.5C 284.291,135.415 282.958,137.248 281.5,139C 277.959,148.59 273.292,157.423 267.5,165.5C 269.313,161.273 270.979,156.94 272.5,152.5C 273.683,149.433 275.017,146.433 276.5,143.5C 279.31,136.626 281.977,129.626 284.5,122.5C 286.448,119.071 287.948,115.405 289,111.5C 290.388,110.446 291.888,110.28 293.5,111C 297.662,116.48 299.996,122.647 300.5,129.5 Z"/></g>
<g><path style="opacity:1" fill="#dbc8df" d="M 137.5,124.5 C 135.224,124.244 134.057,122.91 134,120.5C 133.5,122.333 132.333,123.5 130.5,124C 131.167,124.333 131.833,124.667 132.5,125C 131.216,125.684 130.049,125.517 129,124.5C 125.479,129.369 122.812,134.703 121,140.5C 118.63,143.039 116.13,145.372 113.5,147.5C 118.939,138.174 123.939,128.508 128.5,118.5C 133.513,117.146 136.513,119.146 137.5,124.5 Z"/></g>
<g><path style="opacity:1" fill="#e7d0e8" d="M 137.5,124.5 C 140.597,131.768 142.764,139.435 144,147.5C 148.062,156.289 151.562,165.289 154.5,174.5C 154.838,176.854 155.338,179.187 156,181.5C 160.799,189.11 163.299,197.444 163.5,206.5C 139.5,206.5 115.5,206.5 91.5,206.5C 89.5977,203.663 88.931,200.329 89.5,196.5C 89.5,196.167 89.5,195.833 89.5,195.5C 90.7734,191.349 92.4401,187.349 94.5,183.5C 93.8251,189.215 92.8251,194.882 91.5,200.5C 91.5698,201.772 91.9032,202.938 92.5,204C 115.164,204.5 137.831,204.667 160.5,204.5C 160.29,196.097 157.79,188.43 153,181.5C 150.318,169.891 146.318,158.891 141,148.5C 140.667,148.833 140.333,149.167 140,149.5C 138.782,147.981 137.282,146.814 135.5,146C 135.833,145.667 136.167,145.333 136.5,145C 133.467,143.263 132.967,141.097 135,138.5C 135.739,140.221 136.573,141.887 137.5,143.5C 138.655,137.166 138.655,130.832 137.5,124.5 Z"/></g>
<g><path style="opacity:1" fill="#204a4f" d="M 128.5,109.5 C 126.444,113.902 124.944,118.569 124,123.5C 119.336,132.029 115.169,140.696 111.5,149.5C 111.843,151.483 111.176,152.817 109.5,153.5C 109.631,152.761 109.464,152.094 109,151.5C 107.075,155.6 103.909,157.934 99.5,158.5C 108.15,143.874 116.317,128.874 124,113.5C 124.876,111.365 126.376,110.031 128.5,109.5 Z"/></g>
<g><path style="opacity:1" fill="#344a58" d="M 302.5,132.5 C 303.5,132.5 304.5,132.5 305.5,132.5C 305.3,138.101 307.3,142.767 311.5,146.5C 312.417,145.873 313.417,145.539 314.5,145.5C 317.517,149.203 319.184,153.536 319.5,158.5C 319.5,159.167 319.833,159.5 320.5,159.5C 320.976,166.942 322.143,174.275 324,181.5C 324.667,182.167 325.333,182.833 326,183.5C 327.108,187.884 328.275,192.218 329.5,196.5C 328.483,200.394 328.483,204.227 329.5,208C 328.095,209.269 326.429,209.769 324.5,209.5C 326.887,202.956 327.054,196.29 325,189.5C 321.088,180.153 318.088,170.487 316,160.5C 315.075,159.953 314.242,159.287 313.5,158.5C 313.113,155.762 312.113,153.428 310.5,151.5C 307.947,147.157 305.614,142.657 303.5,138C 302.767,136.234 302.433,134.401 302.5,132.5 Z"/></g>
<g><path style="opacity:1" fill="#0c292f" d="M 378.5,142.5 C 378.631,143.239 378.464,143.906 378,144.5C 377.107,143.289 376.274,143.289 375.5,144.5C 376.768,149.617 378.434,154.617 380.5,159.5C 381.895,158.185 382.895,158.519 383.5,160.5C 385.672,161.934 387.839,162.267 390,161.5C 390.945,161.905 391.612,162.572 392,163.5C 400.333,162.167 408.667,162.167 417,163.5C 419.83,160.778 421.664,161.445 422.5,165.5C 419.916,168.618 419.916,171.785 422.5,175C 422.459,225.603 422.459,276.27 422.5,327C 422.626,331.173 421.959,335.173 420.5,339C 421.609,340.813 420.942,341.646 418.5,341.5C 418.5,342.5 418.5,343.5 418.5,344.5C 397.203,357.819 375.869,371.153 354.5,384.5C 352.659,383.327 350.826,383.327 349,384.5C 344.394,386.887 340.228,389.887 336.5,393.5C 335.808,392.975 335.308,392.308 335,391.5C 334.334,329.588 333.834,267.921 333.5,206.5C 333.23,202.642 331.897,199.309 329.5,196.5C 328.275,192.218 327.108,187.884 326,183.5C 325.333,182.833 324.667,182.167 324,181.5C 322.143,174.275 320.976,166.942 320.5,159.5C 325.167,159.5 329.833,159.5 334.5,159.5C 335.5,159.5 336.5,159.5 337.5,159.5C 337.161,154.07 337.661,148.736 339,143.5C 339.759,141.365 341.259,140.032 343.5,139.5C 342.939,141.066 343.606,142.399 345.5,143.5C 346.429,142.311 346.762,140.978 346.5,139.5C 347.833,139.5 349.167,139.5 350.5,139.5C 350.343,138.127 350.51,136.793 351,135.5C 351.972,137.305 353.139,138.972 354.5,140.5C 358.087,138.237 359.921,134.903 360,130.5C 361.935,133.371 363.601,136.371 365,139.5C 365.186,137.1 365.686,134.766 366.5,132.5C 367.251,133.376 367.751,134.376 368,135.5C 368.308,134.692 368.808,134.025 369.5,133.5C 370.484,136.428 370.817,139.428 370.5,142.5C 371.5,142.5 372.5,142.5 373.5,142.5C 373.5,141.5 373.5,140.5 373.5,139.5C 374.833,139.5 376.167,139.5 377.5,139.5C 377.263,140.791 377.596,141.791 378.5,142.5 Z"/></g>
<g><path style="opacity:0.09" fill="#65a1a4" d="M 267.5,149.5 C 267.498,153.165 266.165,156.165 263.5,158.5C 229.329,158.832 195.329,158.498 161.5,157.5C 195.502,157.667 229.502,157.5 263.5,157C 265.004,154.486 266.338,151.986 267.5,149.5 Z"/></g>
<g><path style="opacity:0.059" fill="#69a4ad" d="M 334.5,157.5 C 334.5,158.167 334.5,158.833 334.5,159.5C 329.833,159.5 325.167,159.5 320.5,159.5C 319.833,159.5 319.5,159.167 319.5,158.5C 324.595,158.779 329.595,158.445 334.5,157.5 Z"/></g>
<g><path style="opacity:1" fill="#0b2930" d="M 159.5,155.5 C 160.5,155.833 161.167,156.5 161.5,157.5C 195.329,158.498 229.329,158.832 263.5,158.5C 259.625,171.268 254.459,183.601 248,195.5C 247.501,200.155 247.334,204.821 247.5,209.5C 227.002,210.139 206.668,209.472 186.5,207.5C 180.986,209.679 175.32,210.012 169.5,208.5C 167.76,205.588 166.427,202.588 165.5,199.5C 165.06,193.729 163.394,188.396 160.5,183.5C 160.002,180.513 159.502,177.513 159,174.5C 155.934,167.376 153.1,160.21 150.5,153C 151.098,151.699 152.098,150.865 153.5,150.5C 155.131,152.059 155.964,154.059 156,156.5C 157.011,155.663 158.178,155.33 159.5,155.5 Z"/></g>
<g><path style="opacity:0.059" fill="#699d9e" d="M 386.5,158.5 C 398.642,159.107 410.642,159.774 422.5,160.5C 411.162,160.667 399.828,160.5 388.5,160C 387.584,159.722 386.918,159.222 386.5,158.5 Z"/></g>
<g><path style="opacity:1" fill="#263f48" d="M 109.5,153.5 C 107.095,157.973 104.429,162.306 101.5,166.5C 99.347,172.305 97.0137,177.972 94.5,183.5C 92.4401,187.349 90.7734,191.349 89.5,195.5C 89.5,193.833 89.5,192.167 89.5,190.5C 88.1667,190.5 86.8333,190.5 85.5,190.5C 86.7175,189.839 88.0508,189.172 89.5,188.5C 89.9912,184.223 91.3245,180.223 93.5,176.5C 94.325,175.614 95.325,175.281 96.5,175.5C 97.9103,169.743 98.9103,164.076 99.5,158.5C 103.909,157.934 107.075,155.6 109,151.5C 109.464,152.094 109.631,152.761 109.5,153.5 Z"/></g>
<g><path style="opacity:1" fill="#314351" d="M 272.5,152.5 C 270.979,156.94 269.313,161.273 267.5,165.5C 262.757,172.686 259.924,180.686 259,189.5C 256.268,193.112 254.434,197.112 253.5,201.5C 252.691,203.292 252.191,205.292 252,207.5C 251.333,204.833 251.333,202.167 252,199.5C 257.281,182.392 263.781,165.725 271.5,149.5C 272.386,150.325 272.719,151.325 272.5,152.5 Z"/></g>
<g><path style="opacity:0.796" fill="#154247" d="M 378.5,142.5 C 379.167,146.167 379.833,149.833 380.5,153.5C 381.914,155.918 383.914,157.585 386.5,158.5C 386.918,159.222 387.584,159.722 388.5,160C 399.828,160.5 411.162,160.667 422.5,160.5C 423.117,160.611 423.617,160.944 424,161.5C 424.667,221.167 424.667,280.833 424,340.5C 422.568,342.439 420.735,343.772 418.5,344.5C 418.5,343.5 418.5,342.5 418.5,341.5C 420.942,341.646 421.609,340.813 420.5,339C 421.959,335.173 422.626,331.173 422.5,327C 422.459,276.27 422.459,225.603 422.5,175C 419.916,171.785 419.916,168.618 422.5,165.5C 421.664,161.445 419.83,160.778 417,163.5C 408.667,162.167 400.333,162.167 392,163.5C 391.612,162.572 390.945,161.905 390,161.5C 387.839,162.267 385.672,161.934 383.5,160.5C 382.895,158.519 381.895,158.185 380.5,159.5C 378.434,154.617 376.768,149.617 375.5,144.5C 376.274,143.289 377.107,143.289 378,144.5C 378.464,143.906 378.631,143.239 378.5,142.5 Z"/></g>
<g><path style="opacity:1" fill="#ccbfd2" d="M 113.5,147.5 C 111.689,152.74 110.022,158.073 108.5,163.5C 107.372,164.262 106.205,164.929 105,165.5C 102.126,169.915 99.7924,174.582 98,179.5C 97.2597,181.319 96.0931,182.652 94.5,183.5C 97.0137,177.972 99.347,172.305 101.5,166.5C 104.429,162.306 107.095,157.973 109.5,153.5C 111.176,152.817 111.843,151.483 111.5,149.5C 112.167,148.833 112.833,148.167 113.5,147.5 Z"/></g>
<g><path style="opacity:0.986" fill="#2f5d63" d="M 99.5,158.5 C 98.9103,164.076 97.9103,169.743 96.5,175.5C 95.325,175.281 94.325,175.614 93.5,176.5C 91.3245,180.223 89.9912,184.223 89.5,188.5C 88.0508,189.172 86.7175,189.839 85.5,190.5C 79.7491,194.926 73.7491,198.926 67.5,202.5C 65.5165,202.383 63.8498,203.05 62.5,204.5C 60.694,203.141 59.194,203.475 58,205.5C 57.6667,234.167 57.3333,262.833 57,291.5C 56.8171,294.365 56.3171,297.031 55.5,299.5C 55.5,298.833 55.5,298.167 55.5,297.5C 54.2409,266.893 54.4075,236.226 56,205.5C 66.6111,198.555 76.9445,191.222 87,183.5C 90.1427,174.548 94.3094,166.215 99.5,158.5 Z"/></g>
<g><path style="opacity:1" fill="#0d2b33" d="M 85.5,190.5 C 86.8333,190.5 88.1667,190.5 89.5,190.5C 89.5,192.167 89.5,193.833 89.5,195.5C 89.5,195.833 89.5,196.167 89.5,196.5C 88.764,199.695 88.0973,203.029 87.5,206.5C 80.1968,207.497 72.8635,207.831 65.5,207.5C 65.3653,205.446 66.032,203.779 67.5,202.5C 73.7491,198.926 79.7491,194.926 85.5,190.5 Z"/></g>
<g><path style="opacity:1" fill="#394354" d="M 154.5,174.5 C 155.376,174.369 156.043,174.702 156.5,175.5C 157.337,178.507 158.67,181.174 160.5,183.5C 163.394,188.396 165.06,193.729 165.5,199.5C 165.167,202.167 164.833,204.833 164.5,207.5C 139.994,207.831 115.661,207.498 91.5,206.5C 115.5,206.5 139.5,206.5 163.5,206.5C 163.299,197.444 160.799,189.11 156,181.5C 155.338,179.187 154.838,176.854 154.5,174.5 Z"/></g>
<g><path style="opacity:1" fill="#1a454e" d="M 299.5,108.5 C 304.293,120.871 309.293,133.205 314.5,145.5C 313.417,145.539 312.417,145.873 311.5,146.5C 307.3,142.767 305.3,138.101 305.5,132.5C 304.5,132.5 303.5,132.5 302.5,132.5C 302.068,131.29 301.401,130.29 300.5,129.5C 299.996,122.647 297.662,116.48 293.5,111C 291.888,110.28 290.388,110.446 289,111.5C 287.948,115.405 286.448,119.071 284.5,122.5C 281.652,125.694 279.485,129.361 278,133.5C 276.957,136.757 276.457,140.09 276.5,143.5C 275.017,146.433 273.683,149.433 272.5,152.5C 272.719,151.325 272.386,150.325 271.5,149.5C 263.781,165.725 257.281,182.392 252,199.5C 251.333,202.167 251.333,204.833 252,207.5C 252.191,205.292 252.691,203.292 253.5,201.5C 253.055,204.365 253.722,206.865 255.5,209C 278.498,209.5 301.498,209.667 324.5,209.5C 326.429,209.769 328.095,209.269 329.5,208C 328.483,204.227 328.483,200.394 329.5,196.5C 331.897,199.309 333.23,202.642 333.5,206.5C 332.933,232.164 332.266,257.83 331.5,283.5C 317.613,290.135 303.613,296.468 289.5,302.5C 290.723,303.614 292.056,303.781 293.5,303C 304.465,298.008 315.465,293.008 326.5,288C 328.813,287.338 331.146,286.838 333.5,286.5C 333.5,302.833 333.5,319.167 333.5,335.5C 306.962,333.596 280.462,331.263 254,328.5C 252.564,328.559 251.231,328.892 250,329.5C 249.333,330.167 249.333,330.833 250,331.5C 250.671,330.748 251.504,330.414 252.5,330.5C 256.446,332.162 260.446,332.496 264.5,331.5C 287.384,332.896 310.384,334.896 333.5,337.5C 333.5,356.833 333.5,376.167 333.5,395.5C 334.833,395.5 336.167,395.5 337.5,395.5C 335.524,397.011 333.191,397.844 330.5,398C 290.83,398.577 251.163,398.411 211.5,397.5C 211.83,391.132 211.496,384.798 210.5,378.5C 209.817,378.137 209.15,377.804 208.5,377.5C 208.5,376.833 208.5,376.167 208.5,375.5C 208.119,374.069 207.119,373.236 205.5,373C 200.504,371.834 196.171,373 192.5,376.5C 190.469,378.31 188.802,380.31 187.5,382.5C 186.078,382.75 185.078,383.583 184.5,385C 182.833,385.667 181.167,385.667 179.5,385C 176.012,379.504 171.346,375.504 165.5,373C 162.833,372.333 160.167,372.333 157.5,373C 154.065,380.367 152.731,388.2 153.5,396.5C 121.491,396.7 89.4914,396.367 57.5,395.5C 56.8333,378.167 56.1667,360.833 55.5,343.5C 55.5,342.167 55.5,340.833 55.5,339.5C 56.8333,339.167 56.8333,338.833 55.5,338.5C 55.5,337.167 55.5,335.833 55.5,334.5C 45.8149,334.422 36.1483,334.755 26.5,335.5C 25.1667,334.833 25.1667,334.167 26.5,333.5C 36.1667,333.5 45.8333,333.5 55.5,333.5C 55.5,330.833 55.5,328.167 55.5,325.5C 55.8685,322.467 55.2018,319.8 53.5,317.5C 53.5,316.833 53.8333,316.5 54.5,316.5C 54.8333,316.5 55.1667,316.5 55.5,316.5C 61.633,318.381 67.633,319.548 73.5,320C 74.6721,320.419 75.6721,321.085 76.5,322C 74.4565,323.708 72.7899,325.708 71.5,328C 64.8333,328.667 64.8333,329.333 71.5,330C 68.8333,330.333 66.1667,330.667 63.5,331C 64.8333,331.333 66.1667,331.667 67.5,332C 76.7214,332.382 85.7214,331.715 94.5,330C 91.1869,328.032 87.8536,326.032 84.5,324C 86.4432,324.305 88.4432,324.305 90.5,324C 88.9559,323.71 87.6226,323.044 86.5,322C 87.1667,321.667 87.8333,321.333 88.5,321C 86.5355,320.376 84.8689,320.876 83.5,322.5C 82.6143,321.675 82.281,320.675 82.5,319.5C 80.857,319.48 79.5237,320.147 78.5,321.5C 76.7295,320.965 76.3961,320.131 77.5,319C 75.1218,318.489 72.7885,317.822 70.5,317C 72.5568,316.695 74.5568,316.695 76.5,317C 74.6241,315.983 72.6241,315.149 70.5,314.5C 70.8333,313.5 71.5,312.833 72.5,312.5C 73.6956,312.846 73.6956,313.346 72.5,314C 73.5,314.667 74.5,314.667 75.5,314C 74.1667,313 74.1667,312 75.5,311C 68.7259,307.916 62.0593,304.75 55.5,301.5C 55.1667,300.833 54.8333,300.167 54.5,299.5C 54.8333,299.5 55.1667,299.5 55.5,299.5C 56.3171,297.031 56.8171,294.365 57,291.5C 57.3333,262.833 57.6667,234.167 58,205.5C 59.194,203.475 60.694,203.141 62.5,204.5C 63.8498,203.05 65.5165,202.383 67.5,202.5C 66.032,203.779 65.3653,205.446 65.5,207.5C 72.8635,207.831 80.1968,207.497 87.5,206.5C 88.0973,203.029 88.764,199.695 89.5,196.5C 88.931,200.329 89.5977,203.663 91.5,206.5C 115.661,207.498 139.994,207.831 164.5,207.5C 164.833,204.833 165.167,202.167 165.5,199.5C 166.427,202.588 167.76,205.588 169.5,208.5C 175.32,210.012 180.986,209.679 186.5,207.5C 206.668,209.472 227.002,210.139 247.5,209.5C 247.334,204.821 247.501,200.155 248,195.5C 254.459,183.601 259.625,171.268 263.5,158.5C 266.165,156.165 267.498,153.165 267.5,149.5C 268.065,145.463 269.399,141.797 271.5,138.5C 273.258,136.859 274.758,134.859 276,132.5C 278.024,125.63 281.024,119.297 285,113.5C 285.201,110.247 286.034,107.247 287.5,104.5C 289.455,103.677 291.455,103.51 293.5,104C 295.66,105.332 297.66,106.832 299.5,108.5 Z"/></g>
<g><path style="opacity:1" fill="#908a9d" d="M 284.5,122.5 C 281.977,129.626 279.31,136.626 276.5,143.5C 276.457,140.09 276.957,136.757 278,133.5C 279.485,129.361 281.652,125.694 284.5,122.5 Z"/></g>
<g><path style="opacity:1" fill="#e5d1e7" d="M 310.5,151.5 C 312.113,153.428 313.113,155.762 313.5,158.5C 314.242,159.287 315.075,159.953 316,160.5C 318.088,170.487 321.088,180.153 325,189.5C 327.054,196.29 326.887,202.956 324.5,209.5C 301.498,209.667 278.498,209.5 255.5,209C 253.722,206.865 253.055,204.365 253.5,201.5C 254.434,197.112 256.268,193.112 259,189.5C 259.924,180.686 262.757,172.686 267.5,165.5C 267.663,167.857 267.497,170.19 267,172.5C 262.531,180.478 260.197,189.144 260,198.5C 252.94,204.772 254.106,207.605 263.5,207C 283.497,207.5 303.497,207.667 323.5,207.5C 324.151,205.174 324.818,202.841 325.5,200.5C 321.36,188.336 317.526,176.002 314,163.5C 312.842,163.002 312.009,162.169 311.5,161C 310.633,157.895 310.299,154.728 310.5,151.5 Z"/></g>
<g><path style="opacity:1" fill="#085b48" d="M 223.5,243.5 C 226.976,242.357 230.642,242.19 234.5,243C 237.081,246.894 238.748,251.061 239.5,255.5C 239.167,255.5 238.833,255.5 238.5,255.5C 237.337,251.65 235.67,247.983 233.5,244.5C 230.232,243.513 226.898,243.18 223.5,243.5 Z"/></g>
<g><path style="opacity:1" fill="#24c97b" d="M 238.5,255.5 C 238.833,255.5 239.167,255.5 239.5,255.5C 239.5,257.167 239.5,258.833 239.5,260.5C 239.667,272.838 239.5,285.171 239,297.5C 236.888,301.551 234.388,305.384 231.5,309C 229.19,309.497 226.857,309.663 224.5,309.5C 223.078,309.291 221.745,308.791 220.5,308C 219.604,305.821 218.271,303.988 216.5,302.5C 219.77,301.942 222.77,300.942 225.5,299.5C 226.787,298.129 227.453,296.295 227.5,294C 227.272,287.623 223.939,285.123 217.5,286.5C 217.334,277.827 217.5,269.16 218,260.5C 218.039,254.933 219.872,250.099 223.5,246C 225.833,245.333 228.167,245.333 230.5,246C 233.283,249.065 235.95,252.232 238.5,255.5 Z"/></g>
<g><path style="opacity:1" fill="#39bb84" d="M 223.5,243.5 C 226.898,243.18 230.232,243.513 233.5,244.5C 235.67,247.983 237.337,251.65 238.5,255.5C 235.95,252.232 233.283,249.065 230.5,246C 228.167,245.333 225.833,245.333 223.5,246C 219.872,250.099 218.039,254.933 218,260.5C 217.5,269.16 217.334,277.827 217.5,286.5C 223.939,285.123 227.272,287.623 227.5,294C 227.453,296.295 226.787,298.129 225.5,299.5C 225.5,298.833 225.5,298.167 225.5,297.5C 225.795,295.265 225.461,293.265 224.5,291.5C 224.24,289.405 223.074,288.072 221,287.5C 219.357,288.315 217.857,289.315 216.5,290.5C 215.251,279.981 215.251,269.314 216.5,258.5C 216.948,252.606 219.281,247.606 223.5,243.5 Z"/></g>
<g><path style="opacity:0.392" fill="#548f90" d="M 49.5,296.5 C 44.4192,294.796 39.4192,292.796 34.5,290.5C 33.3044,290.846 33.3044,291.346 34.5,292C 38.5067,293.337 42.1733,295.17 45.5,297.5C 44.8826,297.611 44.3826,297.944 44,298.5C 36.6975,294.928 29.5308,290.928 22.5,286.5C 22.8333,285.5 23.5,284.833 24.5,284.5C 33.29,287.73 41.6233,291.73 49.5,296.5 Z"/></g>
<g><path style="opacity:1" fill="#0e6e51" d="M 239.5,255.5 C 241.048,255.821 241.715,256.821 241.5,258.5C 241.667,272.504 241.5,286.504 241,300.5C 240.434,303.229 238.934,305.229 236.5,306.5C 237.75,303.933 238.917,301.267 240,298.5C 240.827,285.66 240.66,272.993 239.5,260.5C 239.5,258.833 239.5,257.167 239.5,255.5 Z"/></g>
<g><path style="opacity:1" fill="#095847" d="M 125.5,308.5 C 123.592,308.117 122.092,307.117 121,305.5C 120.333,288.167 120.333,270.833 121,253.5C 122.787,249.423 124.954,245.59 127.5,242C 132.257,241.19 136.924,241.524 141.5,243C 143.333,245.5 145.167,248 147,250.5C 149.493,266.728 150.16,283.062 149,299.5C 148.624,302.01 147.79,304.343 146.5,306.5C 144.024,307.809 142.024,309.642 140.5,312C 136.167,312.667 131.833,312.667 127.5,312C 126.177,311.184 125.511,310.017 125.5,308.5 Z"/></g>
<g><path style="opacity:1" fill="#33c384" d="M 129.5,309.5 C 128.167,309.167 126.833,308.833 125.5,308.5C 124.529,306.517 123.529,304.517 122.5,302.5C 122.205,300.265 122.539,298.265 123.5,296.5C 124.969,299.953 127.302,300.953 130.5,299.5C 131.117,299.389 131.617,299.056 132,298.5C 132.167,297 132.333,295.5 132.5,294C 132.431,292.014 131.765,290.514 130.5,289.5C 129.817,287.824 128.483,287.157 126.5,287.5C 125.167,287.5 123.833,287.5 122.5,287.5C 122.5,278.833 122.5,270.167 122.5,261.5C 122.902,255.031 125.235,249.364 129.5,244.5C 133.167,243.167 136.833,243.167 140.5,244.5C 141.747,247.329 143.247,249.995 145,252.5C 145.988,255.424 146.654,258.424 147,261.5C 147.667,274.5 147.667,287.5 147,300.5C 144.499,304.008 141.999,307.508 139.5,311C 136.5,311.667 133.5,311.667 130.5,311C 129.944,310.617 129.611,310.117 129.5,309.5 Z"/></g>
<g><path style="opacity:1" fill="#21d07c" d="M 129.5,309.5 C 128.294,307.517 126.961,305.517 125.5,303.5C 129.009,302.434 132.509,301.434 136,300.5C 136.207,296.911 136.707,293.411 137.5,290C 134.98,288.237 132.647,286.237 130.5,284C 128.299,283.175 126.466,283.675 125,285.5C 122.584,271.655 124.75,258.821 131.5,247C 133.833,246.333 136.167,246.333 138.5,247C 138.792,250.045 140.292,252.212 143,253.5C 143.667,254.833 144.333,256.167 145,257.5C 145.667,271.167 145.667,284.833 145,298.5C 143.477,300.569 142.643,302.903 142.5,305.5C 140.41,305.45 139.077,306.45 138.5,308.5C 135.572,309.484 132.572,309.817 129.5,309.5 Z"/></g>
<g><path style="opacity:1" fill="#44c688" d="M 137.5,267.5 C 138.496,267.414 139.329,267.748 140,268.5C 142.55,278.125 139.383,281.125 130.5,277.5C 128.043,271.658 129.71,267.658 135.5,265.5C 136.713,265.747 137.38,266.414 137.5,267.5 Z"/></g>
<g><path style="opacity:1" fill="#a6f4d2" d="M 137.5,267.5 C 139.176,271.243 138.843,274.576 136.5,277.5C 138.118,274.178 137.785,271.178 135.5,268.5C 132.297,270.837 131.631,273.837 133.5,277.5C 132.883,277.389 132.383,277.056 132,276.5C 130.011,270.867 131.844,267.867 137.5,267.5 Z"/></g>
<g><path style="opacity:1" fill="#e8fdf7" d="M 136.5,277.5 C 135.5,277.5 134.5,277.5 133.5,277.5C 131.631,273.837 132.297,270.837 135.5,268.5C 137.785,271.178 138.118,274.178 136.5,277.5 Z"/></g>
<g><path style="opacity:1" fill="#aff2d5" d="M 126.5,287.5 C 128.483,287.157 129.817,287.824 130.5,289.5C 127.111,288.682 125.111,290.182 124.5,294C 125.075,297.41 127.075,299.243 130.5,299.5C 127.302,300.953 124.969,299.953 123.5,296.5C 122.924,292.888 123.924,289.888 126.5,287.5 Z"/></g>
<g><path style="opacity:0.678" fill="#105355" d="M 49.5,296.5 C 51.0725,297.687 52.7392,298.687 54.5,299.5C 54.8333,300.167 55.1667,300.833 55.5,301.5C 54.8333,301.5 54.1667,301.5 53.5,301.5C 51.3877,299.229 48.721,297.896 45.5,297.5C 42.1733,295.17 38.5067,293.337 34.5,292C 33.3044,291.346 33.3044,290.846 34.5,290.5C 39.4192,292.796 44.4192,294.796 49.5,296.5 Z"/></g>
<g><path style="opacity:0.043" fill="#83b9b8" d="M 49.5,296.5 C 51.5,296.833 53.5,297.167 55.5,297.5C 55.5,298.167 55.5,298.833 55.5,299.5C 55.1667,299.5 54.8333,299.5 54.5,299.5C 52.7392,298.687 51.0725,297.687 49.5,296.5 Z"/></g>
<g><path style="opacity:1" fill="#40aa83" d="M 122.5,261.5 C 122.5,270.167 122.5,278.833 122.5,287.5C 123.833,287.5 125.167,287.5 126.5,287.5C 123.924,289.888 122.924,292.888 123.5,296.5C 122.539,298.265 122.205,300.265 122.5,302.5C 121.167,288.833 121.167,275.167 122.5,261.5 Z"/></g>
<g><path style="opacity:1" fill="#e6fcf6" d="M 130.5,289.5 C 131.765,290.514 132.431,292.014 132.5,294C 132.333,295.5 132.167,297 132,298.5C 131.617,299.056 131.117,299.389 130.5,299.5C 127.075,299.243 125.075,297.41 124.5,294C 125.111,290.182 127.111,288.682 130.5,289.5 Z"/></g>
<g><path style="opacity:1" fill="#0a5145" d="M 223.5,243.5 C 219.281,247.606 216.948,252.606 216.5,258.5C 215.778,258.918 215.278,259.584 215,260.5C 214.333,274.5 214.333,288.5 215,302.5C 218.515,310.497 224.348,313.163 232.5,310.5C 233.833,309.167 235.167,307.833 236.5,306.5C 238.934,305.229 240.434,303.229 241,300.5C 241.5,286.504 241.667,272.504 241.5,258.5C 242.268,259.263 242.768,260.263 243,261.5C 243.926,275.223 243.593,288.889 242,302.5C 239.141,305.737 236.641,309.237 234.5,313C 229.5,313.667 224.5,313.667 219.5,313C 215.675,310.512 213.508,307.012 213,302.5C 212.605,288.57 212.605,274.57 213,260.5C 213.75,255.263 215.583,250.43 218.5,246C 219.619,244.124 221.286,243.291 223.5,243.5 Z"/></g>
<g><path style="opacity:1" fill="#cefae9" d="M 224.5,291.5 C 225.461,293.265 225.795,295.265 225.5,297.5C 222.655,301.395 219.822,301.395 217,297.5C 216.503,295.19 216.337,292.857 216.5,290.5C 217.857,289.315 219.357,288.315 221,287.5C 223.074,288.072 224.24,289.405 224.5,291.5 Z"/></g>
<g><path style="opacity:1" fill="#f3fdfb" d="M 224.5,291.5 C 224.704,295.281 223.037,297.614 219.5,298.5C 218.916,295.017 219.749,292.017 222,289.5C 222.417,290.756 223.25,291.423 224.5,291.5 Z"/></g>
<g><path style="opacity:1" fill="#c8fae7" d="M 226.5,267.5 C 228.451,267.227 229.951,267.893 231,269.5C 231.667,271.833 231.667,274.167 231,276.5C 229.084,279.033 227.084,279.033 225,276.5C 224.068,273.177 224.568,270.177 226.5,267.5 Z"/></g>
<g><path style="opacity:0.041" fill="#80afae" d="M 45.5,297.5 C 48.721,297.896 51.3877,299.229 53.5,301.5C 51.0665,302.329 48.7332,301.829 46.5,300C 45.7476,299.329 45.4142,298.496 45.5,297.5 Z"/></g>
<g><path style="opacity:0.153" fill="#77b9ba" d="M 53.5,301.5 C 54.1667,301.5 54.8333,301.5 55.5,301.5C 54.9889,305.03 55.6556,308.196 57.5,311C 55.8078,312.401 55.1412,314.234 55.5,316.5C 55.1667,316.5 54.8333,316.5 54.5,316.5C 50.1252,315.323 45.7919,313.989 41.5,312.5C 45.3055,312.412 48.9722,313.079 52.5,314.5C 47.5789,309.118 41.2456,304.785 33.5,301.5C 33.5,299.833 33.5,298.167 33.5,296.5C 39.6582,300.78 46.3249,304.113 53.5,306.5C 54.6664,304.833 54.6664,303.166 53.5,301.5 Z"/></g>
<g><path style="opacity:1" fill="#38aa80" d="M 216.5,258.5 C 215.251,269.314 215.251,279.981 216.5,290.5C 216.337,292.857 216.503,295.19 217,297.5C 219.822,301.395 222.655,301.395 225.5,297.5C 225.5,298.167 225.5,298.833 225.5,299.5C 222.77,300.942 219.77,301.942 216.5,302.5C 218.271,303.988 219.604,305.821 220.5,308C 221.745,308.791 223.078,309.291 224.5,309.5C 226.948,310.473 229.615,310.806 232.5,310.5C 224.348,313.163 218.515,310.497 215,302.5C 214.333,288.5 214.333,274.5 215,260.5C 215.278,259.584 215.778,258.918 216.5,258.5 Z"/></g>
<g><path style="opacity:1" fill="#37bb86" d="M 239.5,260.5 C 240.66,272.993 240.827,285.66 240,298.5C 238.917,301.267 237.75,303.933 236.5,306.5C 235.167,307.833 233.833,309.167 232.5,310.5C 229.615,310.806 226.948,310.473 224.5,309.5C 226.857,309.663 229.19,309.497 231.5,309C 234.388,305.384 236.888,301.551 239,297.5C 239.5,285.171 239.667,272.838 239.5,260.5 Z"/></g>
<g><path style="opacity:1" fill="#799ea7" d="M 312.5,304.5 C 317.411,304.836 317.077,305.502 311.5,306.5C 310.833,306.333 310.167,306.167 309.5,306C 310.737,305.768 311.737,305.268 312.5,304.5 Z"/></g>
<g><path style="opacity:1" fill="#234a52" d="M 55.5,301.5 C 62.0593,304.75 68.7259,307.916 75.5,311C 74.1667,312 74.1667,313 75.5,314C 74.5,314.667 73.5,314.667 72.5,314C 73.6956,313.346 73.6956,312.846 72.5,312.5C 71.5,312.833 70.8333,313.5 70.5,314.5C 72.6241,315.149 74.6241,315.983 76.5,317C 74.5568,316.695 72.5568,316.695 70.5,317C 72.7885,317.822 75.1218,318.489 77.5,319C 76.3961,320.131 76.7295,320.965 78.5,321.5C 79.5237,320.147 80.857,319.48 82.5,319.5C 82.281,320.675 82.6143,321.675 83.5,322.5C 84.8689,320.876 86.5355,320.376 88.5,321C 87.8333,321.333 87.1667,321.667 86.5,322C 87.6226,323.044 88.9559,323.71 90.5,324C 88.4432,324.305 86.4432,324.305 84.5,324C 87.8536,326.032 91.1869,328.032 94.5,330C 85.7214,331.715 76.7214,332.382 67.5,332C 66.1667,331.667 64.8333,331.333 63.5,331C 66.1667,330.667 68.8333,330.333 71.5,330C 64.8333,329.333 64.8333,328.667 71.5,328C 72.7899,325.708 74.4565,323.708 76.5,322C 75.6721,321.085 74.6721,320.419 73.5,320C 67.633,319.548 61.633,318.381 55.5,316.5C 55.1412,314.234 55.8078,312.401 57.5,311C 55.6556,308.196 54.9889,305.03 55.5,301.5 Z"/></g>
<g><path style="opacity:1" fill="#668e95" d="M 305.5,306.5 C 308.598,306.413 308.932,306.913 306.5,308C 302.855,309.166 299.188,309.833 295.5,310C 298.874,308.767 302.207,307.6 305.5,306.5 Z"/></g>
<g><path style="opacity:0.094" fill="#9ccecd" d="M 32.5,309.5 C 33.7095,309.932 34.7095,310.599 35.5,311.5C 33.8212,311.715 32.8212,311.048 32.5,309.5 Z"/></g>
<g><path style="opacity:1" fill="#71979f" d="M 287.5,312.5 C 289.527,310.912 291.861,310.412 294.5,311C 292.26,311.977 289.927,312.477 287.5,312.5 Z"/></g>
<g><path style="opacity:0.604" fill="#3b7474" d="M 32.5,309.5 C 32.8212,311.048 33.8212,311.715 35.5,311.5C 37.7354,311.205 39.7354,311.539 41.5,312.5C 45.7919,313.989 50.1252,315.323 54.5,316.5C 53.8333,316.5 53.5,316.833 53.5,317.5C 44.1583,315.776 34.8249,313.943 25.5,312C 24.1787,310.455 24.5121,309.289 26.5,308.5C 27.7202,309.711 28.8869,309.711 30,308.5C 30.3418,310.619 31.1751,310.953 32.5,309.5 Z"/></g>
<g><path style="opacity:1" fill="#597d85" d="M 287.5,312.5 C 284.976,313.74 282.309,314.907 279.5,316C 278.466,318.664 276.8,318.831 274.5,316.5C 266.932,319.143 259.265,320.976 251.5,322C 263.336,318.208 275.336,315.041 287.5,312.5 Z"/></g>
<g><path style="opacity:1" fill="#7e9ea6" d="M 252.5,330.5 C 256.519,330.646 260.519,330.979 264.5,331.5C 260.446,332.496 256.446,332.162 252.5,330.5 Z"/></g>
<g><path style="opacity:1" fill="#ead5ec" d="M 163.5,315.5 C 170.841,315.334 178.174,315.5 185.5,316C 189.126,318.251 190.293,321.418 189,325.5C 186.167,328.333 183.333,331.167 180.5,334C 177.298,335.483 173.964,335.817 170.5,335C 166.881,330.926 163.381,326.759 160,322.5C 159.176,319.16 160.343,316.827 163.5,315.5 Z"/></g>
<g><path style="opacity:1" fill="#fdd2ee" d="M 172.5,317.5 C 177.297,317.121 181.964,317.621 186.5,319C 187.78,321.132 187.78,323.298 186.5,325.5C 183.437,327.025 180.77,329.025 178.5,331.5C 177.833,331.167 177.167,330.833 176.5,330.5C 175.468,332.04 174.135,332.54 172.5,332C 168.668,329.707 166.001,326.373 164.5,322C 164.735,321.127 165.069,320.293 165.5,319.5C 167.969,318.832 170.302,318.165 172.5,317.5 Z"/></g>
<g><path style="opacity:0.231" fill="#67a3a4" d="M 55.5,325.5 C 55.5,328.167 55.5,330.833 55.5,333.5C 45.8333,333.5 36.1667,333.5 26.5,333.5C 35.6718,332.655 45.0051,331.988 54.5,331.5C 54.2053,329.265 54.5386,327.265 55.5,325.5 Z"/></g>
<g><path style="opacity:1" fill="#799ba4" d="M 289.5,336.5 C 293.372,335.44 297.372,335.607 301.5,337C 297.507,337.17 293.507,337.004 289.5,336.5 Z"/></g>
<g><path style="opacity:0.11" fill="#6db1b1" d="M 55.5,338.5 C 55.5,338.833 55.5,339.167 55.5,339.5C 55.5,340.833 55.5,342.167 55.5,343.5C 52.1667,343.833 48.8333,344.167 45.5,344.5C 48.5156,343.645 50.849,341.812 52.5,339C 52.0426,338.586 51.7093,338.086 51.5,337.5C 43.0096,336.833 34.6763,336.167 26.5,335.5C 36.1483,334.755 45.8149,334.422 55.5,334.5C 55.5,335.833 55.5,337.167 55.5,338.5 Z"/></g>
<g><path style="opacity:0.051" fill="#74acab" d="M 31.5,346.5 C 35.9981,347.375 40.6647,347.375 45.5,346.5C 40.7237,348.474 35.7237,348.808 30.5,347.5C 30.6236,346.893 30.9569,346.56 31.5,346.5 Z"/></g>
<g><path style="opacity:0.329" fill="#205c5f" d="M 55.5,343.5 C 56.1667,360.833 56.8333,378.167 57.5,395.5C 55.5146,379.2 54.8479,362.534 55.5,345.5C 52.2139,346.207 48.8806,346.54 45.5,346.5C 40.6647,347.375 35.9981,347.375 31.5,346.5C 36.0334,345.016 40.7001,344.35 45.5,344.5C 48.8333,344.167 52.1667,343.833 55.5,343.5 Z"/></g>
<g><path style="opacity:1" fill="#11353d" d="M 333.5,206.5 C 333.834,267.921 334.334,329.588 335,391.5C 335.308,392.308 335.808,392.975 336.5,393.5C 340.228,389.887 344.394,386.887 349,384.5C 350.826,383.327 352.659,383.327 354.5,384.5C 349.108,388.553 343.441,392.22 337.5,395.5C 336.167,395.5 334.833,395.5 333.5,395.5C 333.5,376.167 333.5,356.833 333.5,337.5C 310.384,334.896 287.384,332.896 264.5,331.5C 260.519,330.979 256.519,330.646 252.5,330.5C 251.504,330.414 250.671,330.748 250,331.5C 249.333,330.833 249.333,330.167 250,329.5C 251.231,328.892 252.564,328.559 254,328.5C 280.462,331.263 306.962,333.596 333.5,335.5C 333.5,319.167 333.5,302.833 333.5,286.5C 331.146,286.838 328.813,287.338 326.5,288C 315.465,293.008 304.465,298.008 293.5,303C 292.056,303.781 290.723,303.614 289.5,302.5C 303.613,296.468 317.613,290.135 331.5,283.5C 332.266,257.83 332.933,232.164 333.5,206.5 Z"/></g>
<g><path style="opacity:1" fill="#383552" d="M 208.5,375.5 C 204.587,374.404 200.587,374.238 196.5,375C 194.808,376.307 193.475,377.807 192.5,379.5C 190.668,380.248 189.001,381.248 187.5,382.5C 188.802,380.31 190.469,378.31 192.5,376.5C 196.171,373 200.504,371.834 205.5,373C 207.119,373.236 208.119,374.069 208.5,375.5 Z"/></g>
<g><path style="opacity:1" fill="#393a56" d="M 187.5,382.5 C 186.766,385.402 184.932,387.069 182,387.5C 179.114,386.454 176.614,384.787 174.5,382.5C 171.51,375.847 166.51,373.847 159.5,376.5C 157.092,380.094 156.092,384.094 156.5,388.5C 156.667,390.833 156.833,393.167 157,395.5C 158.372,396.91 159.205,398.577 159.5,400.5C 158.05,398.39 156.05,397.057 153.5,396.5C 152.731,388.2 154.065,380.367 157.5,373C 160.167,372.333 162.833,372.333 165.5,373C 171.346,375.504 176.012,379.504 179.5,385C 181.167,385.667 182.833,385.667 184.5,385C 185.078,383.583 186.078,382.75 187.5,382.5 Z"/></g>
<g><path style="opacity:1" fill="#86246c" d="M 174.5,382.5 C 175.048,384.394 176.048,386.06 177.5,387.5C 177.023,388.478 176.357,389.311 175.5,390C 177.342,391.346 178.342,393.179 178.5,395.5C 177.636,396.688 176.636,397.855 175.5,399C 170.58,400.25 165.58,400.75 160.5,400.5C 160.167,400.5 159.833,400.5 159.5,400.5C 159.205,398.577 158.372,396.91 157,395.5C 156.833,393.167 156.667,390.833 156.5,388.5C 156.092,384.094 157.092,380.094 159.5,376.5C 166.51,373.847 171.51,375.847 174.5,382.5 Z"/></g>
<g><path style="opacity:1" fill="#9c1a73" d="M 207.5,383.5 C 208.782,388.781 208.782,394.114 207.5,399.5C 205.946,401.093 204.279,402.426 202.5,403.5C 196.004,403.256 190.67,400.756 186.5,396C 187.094,395.536 187.761,395.369 188.5,395.5C 189.552,395.649 190.552,395.483 191.5,395C 190.433,392.066 188.766,389.566 186.5,387.5C 187,386.5 187.5,385.5 188,384.5C 191.123,382.396 194.289,380.229 197.5,378C 202.917,376.533 206.25,378.367 207.5,383.5 Z"/></g>
<g><path style="opacity:1" fill="#6a3368" d="M 208.5,375.5 C 208.5,376.167 208.5,376.833 208.5,377.5C 210.779,384.315 211.112,391.315 209.5,398.5C 208.473,401.858 206.14,403.525 202.5,403.5C 204.279,402.426 205.946,401.093 207.5,399.5C 208.782,394.114 208.782,388.781 207.5,383.5C 207.411,376.937 204.078,374.437 197.5,376C 196.154,377.669 194.487,378.836 192.5,379.5C 193.475,377.807 194.808,376.307 196.5,375C 200.587,374.238 204.587,374.404 208.5,375.5 Z"/></g>
<g><path style="opacity:1" fill="#a11773" d="M 160.5,378.5 C 164,378.61 167.334,379.443 170.5,381C 171.606,383.879 172.939,386.546 174.5,389C 174.3,391.537 172.967,393.204 170.5,394C 174.687,396.801 174.354,398.301 169.5,398.5C 166.418,398.121 163.418,397.454 160.5,396.5C 159.226,390.508 159.226,384.508 160.5,378.5 Z"/></g>
<g><path style="opacity:1" fill="#3f3b5c" d="M 208.5,377.5 C 209.15,377.804 209.817,378.137 210.5,378.5C 211.496,384.798 211.83,391.132 211.5,397.5C 210.833,397.833 210.167,398.167 209.5,398.5C 211.112,391.315 210.779,384.315 208.5,377.5 Z"/></g>
<g><path style="opacity:1" fill="#732061" d="M 207.5,383.5 C 206.25,378.367 202.917,376.533 197.5,378C 194.289,380.229 191.123,382.396 188,384.5C 187.5,385.5 187,386.5 186.5,387.5C 188.766,389.566 190.433,392.066 191.5,395C 190.552,395.483 189.552,395.649 188.5,395.5C 187.088,394.467 185.422,393.801 183.5,393.5C 181.944,394.547 180.277,395.214 178.5,395.5C 178.342,393.179 177.342,391.346 175.5,390C 176.357,389.311 177.023,388.478 177.5,387.5C 176.048,386.06 175.048,384.394 174.5,382.5C 176.614,384.787 179.114,386.454 182,387.5C 184.932,387.069 186.766,385.402 187.5,382.5C 189.001,381.248 190.668,380.248 192.5,379.5C 194.487,378.836 196.154,377.669 197.5,376C 204.078,374.437 207.411,376.937 207.5,383.5 Z"/></g>
<g><path style="opacity:0.996" fill="#784579" d="M 188.5,395.5 C 187.761,395.369 187.094,395.536 186.5,396C 190.67,400.756 196.004,403.256 202.5,403.5C 200.372,404.629 198.039,404.796 195.5,404C 190.851,402.342 186.518,400.176 182.5,397.5C 176.788,401.57 170.455,403.07 163.5,402C 162.263,401.768 161.263,401.268 160.5,400.5C 165.58,400.75 170.58,400.25 175.5,399C 176.636,397.855 177.636,396.688 178.5,395.5C 180.277,395.214 181.944,394.547 183.5,393.5C 185.422,393.801 187.088,394.467 188.5,395.5 Z"/></g>
</svg>
